<svg xmlns="http://www.w3.org/2000/svg" viewBox="0 0 32 20">
  <rect width="32" height="20" fill="#30abe2"/>
  <path fill="#fff" d="M13.55 11.26 11.7 6.27H9.31v7.18L6.66 6.27h-2L2 13.73h1.58l.56-1.68h3.03l.56 1.68h3.08V8.18l2 5.55h1.4l2.05-5.45v5.45h1.49V6.27h-2.43c.05 0-1.77 4.99-1.77 4.99zm-7.87-.84h-.93l.93-2.61v.1l.93 2.5Zm21.62-.56 1.12-1.4L30 6.27h-1.91l-1.72 2.29-1.73-2.29h-6v7.36h5.82l1.81-2.42 1.77 2.47h1.91l-1.58-2.28a101 101 0 0 0-1.07-1.54zm-3.64 2.28h-3.44v-1.49h3.35v-1.4h-3.35V7.9h3.44l1.73 1.96z"/>
</svg>
