<svg xmlns="http://www.w3.org/2000/svg" fill="none" viewBox="0 0 27 12">
  <path fill="#000" fill-rule="evenodd" d="M5.3 2c-.3.4-.8.7-1.3.6 0-.5.2-1 .5-1.3A2 2 0 0 1 5.7.6c.1.5 0 1-.4 1.4zm.5.7c-.5 0-.9.1-1.2.3l-.5.1c-.1 0-.3 0-.5-.2l-1-.2c-.6 0-1.3.5-1.7 1.1-.7 1.3-.2 3.3.6 4.4.3.5.8 1.1 1.3 1h.6a1.7 1.7 0 0 1 1.6 0h.6c.6 0 1-.5 1.4-1L7.5 7a2 2 0 0 1-.2-3.4 2 2 0 0 0-1.5-.9zm4 6.5v-8h3a2.5 2.5 0 0 1 2.6 2.6c0 1.6-1 2.7-2.6 2.7H11v2.7H9.8zm1.3-7h1.4c1 0 1.7.6 1.7 1.6s-.6 1.6-1.7 1.6H11V2.3zm8.4 6a2 2 0 0 1-1.8 1c-1.2 0-2-.6-2-1.6s.8-1.7 2.2-1.7l1.6-.1v-.5c0-.6-.5-1-1.2-1s-1.1.3-1.2.8h-1c0-1 1-1.8 2.2-1.8 1.4 0 2.3.8 2.3 2v4h-1.1v-1zm-1.5.1c-.7 0-1-.3-1-.8s.3-.8 1-.8l1.4-.1V7c0 .8-.6 1.3-1.4 1.3zm6.4 1.2c-.5 1.4-1 1.9-2.2 1.9h-.5v-1h.3c.6 0 .9-.2 1-.8l.2-.4-2-5.8h1.2l1.4 4.7 1.5-4.7h1.3l-2.2 6.1z" clip-rule="evenodd"/>
</svg>
