<svg xmlns="http://www.w3.org/2000/svg" viewBox="0 0 38.5 24">
  <rect width="38.2" height="23.7" x=".15" y=".15" fill="#fff" stroke="#222" stroke-width=".3" ry="11.6"/>
  <path fill="#e21f28" d="M15.15 5.65H4.35a9.5 10.1 0 0 1 7.2-3.5h15.3a9.5 10.1 0 0 1 7.2 3.5h-8l-4 4.3c-.3-3.3-3.2-4.3-7-4.3zm14.4 5.6 5-5.1a9.4 9.7 0 0 1 1.8 5.8 9.4 9.7 0 0 1-1.7 5.6zm-20.6-1.5h5c1 0 2 .6 1.6 1.9-.4 1.3-.9 2-2.5 2h-5.6zm17.3 8.3h8.1a9.5 10.1 0 0 1-7.4 3.7h-15.4a9.5 10.1 0 0 1-7.4-3.8h9.6c4.8 0 7.3-1.8 8.1-5.5z"/>
</svg>
