<svg xmlns="http://www.w3.org/2000/svg" viewBox="0 0 88 22">
  <g fill="#5a78ff">
    <path d="M8.28 22a1.86 1.86 0 0 1-1.72-1.15L.14 5.35a1.86 1.86 0 0 1 1-2.42L7.88.14a1.86 1.86 0 0 1 2.43 1l6.42 15.5a1.86 1.86 0 0 1-1 2.43l-6.73 2.79a1.85 1.85 0 0 1-.71.14zm.3-21a.85.85 0 0 0-.33.07L1.53 3.85a.86.86 0 0 0-.46 1.12l6.42 15.5a.86.86 0 0 0 1.12.46l6.72-2.78a.86.86 0 0 0 .46-1.12L9.37 1.53A.86.86 0 0 0 8.58 1Z"/>
    <path fill="#3c5ae3" d="M9.62 14.61 6.91 8.07a11.45 11.45 0 0 1 4.58-3.22c1.92-.8 3.86-1.19 5.52-.96l2.7 6.54c-3.8-.07-7.79 1.36-10.09 4.18Z"/>
    <path d="M15.08 13.39c-2.08 0-3.98.4-5.46 1.22V8c1.7-.85 3.57-1.27 5.46-1.22 2.08 0 4.03.39 5.47 1.22v6.62a11.44 11.44 0 0 0-5.47-1.22Z"/>
    <path d="m26.24 15.02 2.43-7.68c.02-.1.11-.19.22-.2h1.22c.11.02.2.1.24.2l1.9 4.85c.03.1.13.1.16 0l1.88-4.85a.3.3 0 0 1 .24-.2h1.22c.1.01.2.1.22.2l2.4 7.68a.18.18 0 0 1-.17.26h-1.45c-.1 0-.2-.06-.22-.16l-1.54-5c-.02-.09-.14-.09-.17 0l-1.84 4.96a.27.27 0 0 1-.26.2h-.85c-.14 0-.2-.07-.26-.2l-1.87-4.95c-.04-.1-.14-.1-.16 0L28 15.12a.22.22 0 0 1-.23.16H26.4a.18.18 0 0 1-.15-.26zm12.6-2.76a3.22 3.22 0 1 1 3.22 3.16 3.12 3.12 0 0 1-3.22-3.16zm4.78 0a1.58 1.58 0 1 0-1.56 1.69c.9-.04 1.6-.8 1.55-1.7zm4.5 2.53c-.12-.1-.23-.06-.23.1v.16c0 .12-.1.22-.21.22h-1.13a.23.23 0 0 1-.22-.22V7.37c0-.13.1-.22.22-.23h1.18c.13 0 .22.1.22.23v2.19c0 .15.1.2.28.08.45-.34 1-.52 1.57-.52 1.64 0 2.9 1.38 2.9 3.15a3.02 3.02 0 0 1-2.95 3.16c-.6 0-1.19-.23-1.63-.64zm2.94-2.52c.18-2.27-3.33-2.27-3.15 0a1.6 1.6 0 0 0 1.56 1.66c.9-.02 1.62-.77 1.6-1.67zm2.62-4.57c0-1.23 1.84-1.23 1.84 0s-1.84 1.23-1.84 0zm.09 7.37V9.5c0-.12.1-.22.21-.23h1.18c.13 0 .24.1.25.23v5.55c0 .12-.1.22-.23.22h-1.2a.23.23 0 0 1-.21-.22zm2.96-1.83V7.37c0-.13.1-.22.21-.23h1.18c.13 0 .23.1.23.23v5.91c0 .38.17.64.58.64.13 0 .23.1.23.22v.98c0 .12-.1.22-.23.22-1.57 0-2.2-.52-2.2-2.1zm2.87-.94a3.11 3.11 0 0 1 6.23.02c0 .22-.06.4-.28.4h-4.12c-.1 0-.14.05-.13.15.1.72.75 1.24 1.47 1.18.44.01.86-.18 1.14-.51.09-.12.23-.2.38-.2h1.1c.2 0 .28.14.2.33-1.46 3-5.97 1.95-5.98-1.38zm4.37-.56c.08 0 .12-.03.1-.13a1.38 1.38 0 0 0-1.37-1.12c-.66 0-1.23.45-1.39 1.09-.02.08 0 .16.1.16zm2.85 3.3V7.38c0-.13.1-.22.22-.23h3.77c1.72 0 2.9 1 2.9 2.7 0 1.68-1.34 2.72-2.99 2.72h-2a.2.2 0 0 0-.21.23v2.26c0 .12-.1.22-.23.22h-1.24a.23.23 0 0 1-.22-.22zm3.9-3.87a1.3 1.3 0 0 0 1.26-1.33c.02-.7-.55-1.28-1.26-1.26H68.7c-.14 0-.2.07-.2.21v2.18c0 .14.06.22.2.22zm3.56 1.09a3.04 3.04 0 0 1 2.97-3.16c.59 0 1.16.22 1.6.61.1.1.22.09.22-.06V9.5c0-.12.1-.22.22-.22h1.12c.12 0 .22.1.23.23v3.95c0 .3.1.43.3.46.12 0 .2.08.21.19v1.04c0 .11-.09.2-.2.2-.8 0-1.26-.22-1.52-.68-.07-.12-.16-.14-.28-.02-.5.52-1.2.8-1.93.8a3.03 3.03 0 0 1-2.94-3.2zm4.79 0c.17-2.27-3.32-2.27-3.15 0-.17 2.27 3.32 2.27 3.15 0zm2.64 5.12v-.98c0-.12.1-.21.22-.21.77.05 1.48-.42 1.72-1.15a.66.66 0 0 0-.04-.47L81.4 9.6a.22.22 0 0 1 .2-.32h1.17c.12 0 .2.1.24.22l1.39 3.18c.1.26.25.24.35 0l1.32-3.2c.05-.11.1-.18.23-.18h1.13a.2.2 0 0 1 .2.28l-2.26 5.36c-.82 1.95-1.7 2.68-3.45 2.68a.23.23 0 0 1-.22-.23z"/>
  </g>
</svg>
