<svg xmlns="http://www.w3.org/2000/svg" viewBox="0 0 38 24">
  <path fill="#fff" d="M1 1h35.2v22H1Z"/>
  <path fill="#fcb315" d="M1 19.7h36V23H1Z"/>
  <path fill="#113f93" d="M1 1h36v3.3H1ZM15.1 7.2l-3.9 9.3H8.7L6.7 9c0-.5-.2-.7-.5-.9a10 10 0 0 0-2.4-.8v-.2H8c.5 0 1 .3 1 1l1 5.3 2.6-6.3zm10 6.2c0-2.4-3.4-2.6-3.4-3.7 0-.3.4-.6 1-.7a4.6 4.6 0 0 1 2.4.4l.5-2a6.5 6.5 0 0 0-2.3-.4c-2.4 0-4 1.3-4 3 0 1.4 1.1 2.2 2 2.6 1 .5 1.3.8 1.3 1.2 0 .6-.7.9-1.4.9-1.3 0-2-.3-2.5-.6l-.5 2c.6.3 1.6.5 2.7.5 2.5 0 4.2-1.2 4.2-3.2m6.3 3h2.2l-1.9-9.2h-2a1.1 1.1 0 0 0-1 .7L25 16.5h2.5L28 15h3.1zm-2.7-3.2L30 9.7l.7 3.5zm-10.1-6-2 9.3h-2.4l2-9.3z"/>
</svg>
